<svg xmlns="http://www.w3.org/2000/svg" viewBox="0 0 120 120" fill="#555">
  <path d="M89.3 63.7c-.2-13.2 10.7-19.6 11.2-19.9-6.1-9-15.6-10.2-19-10.4-8.1-.8-15.8 4.8-19.9 4.8-4.1 0-10.5-4.7-17.3-4.6-8.9.1-17.1 5.2-21.7 13.2-9.3 16.1-2.4 40 6.7 53.1 4.4 6.4 9.7 13.6 16.6 13.3 6.7-.3 9.2-4.3 17.3-4.3 8.1 0 10.4 4.3 17.4 4.2 7.2-.1 11.8-6.5 16.1-13 5.1-7.4 7.2-14.6 7.3-15-.2-.1-14-5.4-14.2-21.4zM74.6 20.9c3.7-4.4 6.1-10.6 5.4-16.7-5.3.2-11.6 3.5-15.4 7.9-3.4 3.9-6.3 10.2-5.5 16.2 5.8.5 11.7-3.1 15.5-7.4z"/>
</svg>
